<?xml version="1.0" encoding="UTF-8" standalone="no"?>
<!DOCTYPE svg PUBLIC "-//W3C//DTD SVG 1.1//EN"
 "http://www.w3.org/Graphics/SVG/1.1/DTD/svg11.dtd">
<!-- Generated by graphviz version 2.26.3 (20100126.1600)
 -->
<!-- Title: G Pages: 1 -->
<svg width="538pt" height="1478pt"
 viewBox="0.00 0.00 538.00 1478.00" xmlns="http://www.w3.org/2000/svg" xmlns:xlink="http://www.w3.org/1999/xlink">
<g id="graph1" class="graph" transform="scale(1 1) rotate(0) translate(4 1474)">
<title>G</title>
<polygon fill="white" stroke="white" points="-4,5 -4,-1474 535,-1474 535,5 -4,5"/>
<g id="graph2" class="cluster"><title>cluster_Treffynnon</title>
<polyline fill="none" stroke="gray" points="20,-44 510,-44 "/>
<path fill="none" stroke="gray" d="M510,-44C516,-44 522,-50 522,-56"/>
<polyline fill="none" stroke="gray" points="522,-56 522,-1450 "/>
<path fill="none" stroke="gray" d="M522,-1450C522,-1456 516,-1462 510,-1462"/>
<polyline fill="none" stroke="gray" points="510,-1462 20,-1462 "/>
<path fill="none" stroke="gray" d="M20,-1462C14,-1462 8,-1456 8,-1450"/>
<polyline fill="none" stroke="gray" points="8,-1450 8,-56 "/>
<path fill="none" stroke="gray" d="M8,-56C8,-50 14,-44 20,-44"/>
<text text-anchor="middle" x="265" y="-1448.1" font-family="Times Roman,serif" font-size="11.00" fill="gray">Treffynnon</text>
</g>
<g id="graph3" class="cluster"><title>cluster_Treffynnon\Navigator</title>
<polyline fill="none" stroke="gray" points="28,-98 502,-98 "/>
<path fill="none" stroke="gray" d="M502,-98C508,-98 514,-104 514,-110"/>
<polyline fill="none" stroke="gray" points="514,-110 514,-1420 "/>
<path fill="none" stroke="gray" d="M514,-1420C514,-1426 508,-1432 502,-1432"/>
<polyline fill="none" stroke="gray" points="502,-1432 28,-1432 "/>
<path fill="none" stroke="gray" d="M28,-1432C22,-1432 16,-1426 16,-1420"/>
<polyline fill="none" stroke="gray" points="16,-1420 16,-110 "/>
<path fill="none" stroke="gray" d="M16,-110C16,-104 22,-98 28,-98"/>
<text text-anchor="middle" x="265" y="-1418.1" font-family="Times Roman,serif" font-size="11.00" fill="gray">Navigator</text>
</g>
<g id="graph4" class="cluster"><title>cluster_Treffynnon\Navigator\CelestialBody</title>
<polyline fill="none" stroke="gray" points="36,-1220 416,-1220 "/>
<path fill="none" stroke="gray" d="M416,-1220C422,-1220 428,-1226 428,-1232"/>
<polyline fill="none" stroke="gray" points="428,-1232 428,-1390 "/>
<path fill="none" stroke="gray" d="M428,-1390C428,-1396 422,-1402 416,-1402"/>
<polyline fill="none" stroke="gray" points="416,-1402 36,-1402 "/>
<path fill="none" stroke="gray" d="M36,-1402C30,-1402 24,-1396 24,-1390"/>
<polyline fill="none" stroke="gray" points="24,-1390 24,-1232 "/>
<path fill="none" stroke="gray" d="M24,-1232C24,-1226 30,-1220 36,-1220"/>
<text text-anchor="middle" x="226" y="-1388.1" font-family="Times Roman,serif" font-size="11.00" fill="gray">CelestialBody</text>
</g>
<g id="graph5" class="cluster"><title>cluster_Treffynnon\Navigator\Coordinate</title>
<polyline fill="none" stroke="gray" points="60,-1084 429,-1084 "/>
<path fill="none" stroke="gray" d="M429,-1084C435,-1084 441,-1090 441,-1096"/>
<polyline fill="none" stroke="gray" points="441,-1096 441,-1200 "/>
<path fill="none" stroke="gray" d="M441,-1200C441,-1206 435,-1212 429,-1212"/>
<polyline fill="none" stroke="gray" points="429,-1212 60,-1212 "/>
<path fill="none" stroke="gray" d="M60,-1212C54,-1212 48,-1206 48,-1200"/>
<polyline fill="none" stroke="gray" points="48,-1200 48,-1096 "/>
<path fill="none" stroke="gray" d="M48,-1096C48,-1090 54,-1084 60,-1084"/>
<text text-anchor="middle" x="244.5" y="-1198.1" font-family="Times Roman,serif" font-size="11.00" fill="gray">Coordinate</text>
</g>
<g id="graph6" class="cluster"><title>cluster_Treffynnon\Navigator\Distance</title>
<polyline fill="none" stroke="gray" points="38,-450 458,-450 "/>
<path fill="none" stroke="gray" d="M458,-450C464,-450 470,-456 470,-462"/>
<polyline fill="none" stroke="gray" points="470,-462 470,-1064 "/>
<path fill="none" stroke="gray" d="M470,-1064C470,-1070 464,-1076 458,-1076"/>
<polyline fill="none" stroke="gray" points="458,-1076 38,-1076 "/>
<path fill="none" stroke="gray" d="M38,-1076C32,-1076 26,-1070 26,-1064"/>
<polyline fill="none" stroke="gray" points="26,-1064 26,-462 "/>
<path fill="none" stroke="gray" d="M26,-462C26,-456 32,-450 38,-450"/>
<text text-anchor="middle" x="248" y="-1062.1" font-family="Times Roman,serif" font-size="11.00" fill="gray">Distance</text>
</g>
<g id="graph7" class="cluster"><title>cluster_Treffynnon\Navigator\Distance\Calculator</title>
<polyline fill="none" stroke="gray" points="46,-810 423,-810 "/>
<path fill="none" stroke="gray" d="M423,-810C429,-810 435,-816 435,-822"/>
<polyline fill="none" stroke="gray" points="435,-822 435,-1034 "/>
<path fill="none" stroke="gray" d="M435,-1034C435,-1040 429,-1046 423,-1046"/>
<polyline fill="none" stroke="gray" points="423,-1046 46,-1046 "/>
<path fill="none" stroke="gray" d="M46,-1046C40,-1046 34,-1040 34,-1034"/>
<polyline fill="none" stroke="gray" points="34,-1034 34,-822 "/>
<path fill="none" stroke="gray" d="M34,-822C34,-816 40,-810 46,-810"/>
<text text-anchor="middle" x="234.5" y="-1032.1" font-family="Times Roman,serif" font-size="11.00" fill="gray">Calculator</text>
</g>
<g id="graph8" class="cluster"><title>cluster_Treffynnon\Navigator\Distance\Converter</title>
<polyline fill="none" stroke="gray" points="50,-458 450,-458 "/>
<path fill="none" stroke="gray" d="M450,-458C456,-458 462,-464 462,-470"/>
<polyline fill="none" stroke="gray" points="462,-470 462,-790 "/>
<path fill="none" stroke="gray" d="M462,-790C462,-796 456,-802 450,-802"/>
<polyline fill="none" stroke="gray" points="450,-802 50,-802 "/>
<path fill="none" stroke="gray" d="M50,-802C44,-802 38,-796 38,-790"/>
<polyline fill="none" stroke="gray" points="38,-790 38,-470 "/>
<path fill="none" stroke="gray" d="M38,-470C38,-464 44,-458 50,-458"/>
<text text-anchor="middle" x="250" y="-788.1" font-family="Times Roman,serif" font-size="11.00" fill="gray">Converter</text>
</g>
<g id="graph11" class="cluster"><title>cluster_Treffynnon\Navigator\Exception</title>
<polyline fill="none" stroke="gray" points="268,-260 494,-260 "/>
<path fill="none" stroke="gray" d="M494,-260C500,-260 506,-266 506,-272"/>
<polyline fill="none" stroke="gray" points="506,-272 506,-430 "/>
<path fill="none" stroke="gray" d="M506,-430C506,-436 500,-442 494,-442"/>
<polyline fill="none" stroke="gray" points="494,-442 268,-442 "/>
<path fill="none" stroke="gray" d="M268,-442C262,-442 256,-436 256,-430"/>
<polyline fill="none" stroke="gray" points="256,-430 256,-272 "/>
<path fill="none" stroke="gray" d="M256,-272C256,-266 262,-260 268,-260"/>
<text text-anchor="middle" x="381" y="-428.1" font-family="Times Roman,serif" font-size="11.00" fill="gray">Exception</text>
</g>
<!-- \\Treffynnon\\Navigator\\CelestialBody\\CelestialBodyAbstract -->
<g id="node4" class="node"><title>\\Treffynnon\\Navigator\\CelestialBody\\CelestialBodyAbstract</title>
<a xlink:href="Treffynnon.Navigator.CelestialBody.CelestialBodyAbstract.html" xlink:title="«abstract»&lt;br/&gt;CelestialBodyAbstract" target="_parent">
<polygon fill="none" stroke="black" points="191,-1318 33,-1318 33,-1282 191,-1282 191,-1318"/>
<text text-anchor="start" x="78" y="-1305.43" font-family="Courier,monospace" font-size="11.00">«abstract»</text>
<text text-anchor="start" x="41" y="-1292.23" font-family="Courier,monospace" font-size="11.00">CelestialBodyAbstract</text>
</a>
</g>
<!-- \\Treffynnon\\Navigator\\CelestialBody\\Earth -->
<g id="node5" class="node"><title>\\Treffynnon\\Navigator\\CelestialBody\\Earth</title>
<a xlink:href="Treffynnon.Navigator.CelestialBody.Earth.html" xlink:title="Earth" target="_parent">
<polygon fill="none" stroke="black" points="408,-1372 354,-1372 354,-1336 408,-1336 408,-1372"/>
<text text-anchor="middle" x="381" y="-1351.1" font-family="Courier,monospace" font-size="11.00">Earth</text>
</a>
</g>
<!-- \\Treffynnon\\Navigator\\CelestialBody\\Earth&#45;&gt;\\Treffynnon\\Navigator\\CelestialBody\\CelestialBodyAbstract -->
<g id="edge40" class="edge"><title>\\Treffynnon\\Navigator\\CelestialBody\\Earth&#45;&gt;\\Treffynnon\\Navigator\\CelestialBody\\CelestialBodyAbstract</title>
<path fill="none" stroke="black" d="M353.976,-1348.58C318.543,-1341.46 254.633,-1328.63 201.39,-1317.94"/>
<polygon fill="none" stroke="black" points="202.075,-1314.51 191.582,-1315.98 200.697,-1321.38 202.075,-1314.51"/>
</g>
<!-- \\Treffynnon\\Navigator\\CelestialBody\\EarthMoon -->
<g id="node6" class="node"><title>\\Treffynnon\\Navigator\\CelestialBody\\EarthMoon</title>
<a xlink:href="Treffynnon.Navigator.CelestialBody.EarthMoon.html" xlink:title="EarthMoon" target="_parent">
<polygon fill="none" stroke="black" points="419,-1318 343,-1318 343,-1282 419,-1282 419,-1318"/>
<text text-anchor="middle" x="381" y="-1297.1" font-family="Courier,monospace" font-size="11.00">EarthMoon</text>
</a>
</g>
<!-- \\Treffynnon\\Navigator\\CelestialBody\\EarthMoon&#45;&gt;\\Treffynnon\\Navigator\\CelestialBody\\CelestialBodyAbstract -->
<g id="edge42" class="edge"><title>\\Treffynnon\\Navigator\\CelestialBody\\EarthMoon&#45;&gt;\\Treffynnon\\Navigator\\CelestialBody\\CelestialBodyAbstract</title>
<path fill="none" stroke="black" d="M342.459,-1300C305.907,-1300 249.627,-1300 201.834,-1300"/>
<polygon fill="none" stroke="black" points="201.775,-1296.5 191.775,-1300 201.775,-1303.5 201.775,-1296.5"/>
</g>
<!-- \\Treffynnon\\Navigator\\CelestialBody\\Mars -->
<g id="node7" class="node"><title>\\Treffynnon\\Navigator\\CelestialBody\\Mars</title>
<a xlink:href="Treffynnon.Navigator.CelestialBody.Mars.html" xlink:title="Mars" target="_parent">
<polygon fill="none" stroke="black" points="408,-1264 354,-1264 354,-1228 408,-1228 408,-1264"/>
<text text-anchor="middle" x="381" y="-1243.1" font-family="Courier,monospace" font-size="11.00">Mars</text>
</a>
</g>
<!-- \\Treffynnon\\Navigator\\CelestialBody\\Mars&#45;&gt;\\Treffynnon\\Navigator\\CelestialBody\\CelestialBodyAbstract -->
<g id="edge44" class="edge"><title>\\Treffynnon\\Navigator\\CelestialBody\\Mars&#45;&gt;\\Treffynnon\\Navigator\\CelestialBody\\CelestialBodyAbstract</title>
<path fill="none" stroke="black" d="M353.976,-1251.42C318.543,-1258.54 254.633,-1271.37 201.39,-1282.06"/>
<polygon fill="none" stroke="black" points="200.697,-1278.62 191.582,-1284.02 202.075,-1285.49 200.697,-1278.62"/>
</g>
<!-- \\Treffynnon\\Navigator\\Coordinate\\ParserAbstract -->
<g id="node9" class="node"><title>\\Treffynnon\\Navigator\\Coordinate\\ParserAbstract</title>
<a xlink:href="Treffynnon.Navigator.Coordinate.ParserAbstract.html" xlink:title="«abstract»&lt;br/&gt;ParserAbstract" target="_parent">
<polygon fill="none" stroke="black" points="168,-1155 56,-1155 56,-1119 168,-1119 168,-1155"/>
<text text-anchor="start" x="78" y="-1142.43" font-family="Courier,monospace" font-size="11.00">«abstract»</text>
<text text-anchor="start" x="64.5" y="-1129.23" font-family="Courier,monospace" font-size="11.00">ParserAbstract</text>
</a>
</g>
<!-- \\Treffynnon\\Navigator\\Coordinate\\DmsParser -->
<g id="node10" class="node"><title>\\Treffynnon\\Navigator\\Coordinate\\DmsParser</title>
<a xlink:href="Treffynnon.Navigator.Coordinate.DmsParser.html" xlink:title="DmsParser" target="_parent">
<polygon fill="none" stroke="black" points="419,-1182 343,-1182 343,-1146 419,-1146 419,-1182"/>
<text text-anchor="middle" x="381" y="-1161.1" font-family="Courier,monospace" font-size="11.00">DmsParser</text>
</a>
</g>
<!-- \\Treffynnon\\Navigator\\Coordinate\\DmsParser&#45;&gt;\\Treffynnon\\Navigator\\Coordinate\\ParserAbstract -->
<g id="edge46" class="edge"><title>\\Treffynnon\\Navigator\\Coordinate\\DmsParser&#45;&gt;\\Treffynnon\\Navigator\\Coordinate\\ParserAbstract</title>
<path fill="none" stroke="black" d="M342.459,-1160.13C299.693,-1155.84 229.922,-1148.84 178.335,-1143.66"/>
<polygon fill="none" stroke="black" points="178.573,-1140.16 168.273,-1142.65 177.874,-1147.13 178.573,-1140.16"/>
</g>
<!-- \\Treffynnon\\Navigator\\Coordinate\\DecimalParser -->
<g id="node11" class="node"><title>\\Treffynnon\\Navigator\\Coordinate\\DecimalParser</title>
<a xlink:href="Treffynnon.Navigator.Coordinate.DecimalParser.html" xlink:title="DecimalParser" target="_parent">
<polygon fill="none" stroke="black" points="433,-1128 329,-1128 329,-1092 433,-1092 433,-1128"/>
<text text-anchor="middle" x="381" y="-1107.1" font-family="Courier,monospace" font-size="11.00">DecimalParser</text>
</a>
</g>
<!-- \\Treffynnon\\Navigator\\Coordinate\\DecimalParser&#45;&gt;\\Treffynnon\\Navigator\\Coordinate\\ParserAbstract -->
<g id="edge48" class="edge"><title>\\Treffynnon\\Navigator\\Coordinate\\DecimalParser&#45;&gt;\\Treffynnon\\Navigator\\Coordinate\\ParserAbstract</title>
<path fill="none" stroke="black" d="M328.815,-1115.24C285.828,-1119.55 224.613,-1125.7 178.184,-1130.36"/>
<polygon fill="none" stroke="black" points="177.816,-1126.88 168.216,-1131.36 178.515,-1133.84 177.816,-1126.88"/>
</g>
<!-- \\Treffynnon\\Navigator\\Distance\\Calculator\\Vincenty -->
<g id="node14" class="node"><title>\\Treffynnon\\Navigator\\Distance\\Calculator\\Vincenty</title>
<a xlink:href="Treffynnon.Navigator.Distance.Calculator.Vincenty.html" xlink:title="Vincenty" target="_parent">
<polygon fill="none" stroke="black" points="416,-1016 346,-1016 346,-980 416,-980 416,-1016"/>
<text text-anchor="middle" x="381" y="-995.1" font-family="Courier,monospace" font-size="11.00">Vincenty</text>
</a>
</g>
<!-- \\Treffynnon\\Navigator\\Distance\\Calculator\\CalculatorAbstract -->
<g id="node17" class="node"><title>\\Treffynnon\\Navigator\\Distance\\Calculator\\CalculatorAbstract</title>
<a xlink:href="Treffynnon.Navigator.Distance.Calculator.CalculatorAbstract.html" xlink:title="«abstract»&lt;br/&gt;CalculatorAbstract" target="_parent">
<polygon fill="none" stroke="black" points="181,-935 43,-935 43,-899 181,-899 181,-935"/>
<text text-anchor="start" x="78" y="-922.433" font-family="Courier,monospace" font-size="11.00">«abstract»</text>
<text text-anchor="start" x="51" y="-909.233" font-family="Courier,monospace" font-size="11.00">CalculatorAbstract</text>
</a>
</g>
<!-- \\Treffynnon\\Navigator\\Distance\\Calculator\\Vincenty&#45;&gt;\\Treffynnon\\Navigator\\Distance\\Calculator\\CalculatorAbstract -->
<g id="edge32" class="edge"><title>\\Treffynnon\\Navigator\\Distance\\Calculator\\Vincenty&#45;&gt;\\Treffynnon\\Navigator\\Distance\\Calculator\\CalculatorAbstract</title>
<path fill="none" stroke="black" d="M345.362,-991.738C320.163,-986.963 285.716,-979.73 256,-971 225.313,-961.984 191.815,-949.583 164.856,-938.937"/>
<polygon fill="none" stroke="black" points="165.822,-935.555 155.237,-935.105 163.231,-942.058 165.822,-935.555"/>
</g>
<!-- \\Treffynnon\\Navigator\\Distance\\Calculator\\GreatCircle -->
<g id="node15" class="node"><title>\\Treffynnon\\Navigator\\Distance\\Calculator\\GreatCircle</title>
<a xlink:href="Treffynnon.Navigator.Distance.Calculator.GreatCircle.html" xlink:title="GreatCircle" target="_parent">
<polygon fill="none" stroke="black" points="426,-962 336,-962 336,-926 426,-926 426,-962"/>
<text text-anchor="middle" x="381" y="-941.1" font-family="Courier,monospace" font-size="11.00">GreatCircle</text>
</a>
</g>
<!-- \\Treffynnon\\Navigator\\Distance\\Calculator\\GreatCircle&#45;&gt;\\Treffynnon\\Navigator\\Distance\\Calculator\\CalculatorAbstract -->
<g id="edge34" class="edge"><title>\\Treffynnon\\Navigator\\Distance\\Calculator\\GreatCircle&#45;&gt;\\Treffynnon\\Navigator\\Distance\\Calculator\\CalculatorAbstract</title>
<path fill="none" stroke="black" d="M335.368,-939.42C296.126,-935.481 238.617,-929.709 191.78,-925.008"/>
<polygon fill="none" stroke="black" points="191.954,-921.508 181.654,-923.991 191.255,-928.473 191.954,-921.508"/>
</g>
<!-- \\Treffynnon\\Navigator\\Distance\\Calculator\\CosineLaw -->
<g id="node16" class="node"><title>\\Treffynnon\\Navigator\\Distance\\Calculator\\CosineLaw</title>
<a xlink:href="Treffynnon.Navigator.Distance.Calculator.CosineLaw.html" xlink:title="CosineLaw" target="_parent">
<polygon fill="none" stroke="black" points="419,-908 343,-908 343,-872 419,-872 419,-908"/>
<text text-anchor="middle" x="381" y="-887.1" font-family="Courier,monospace" font-size="11.00">CosineLaw</text>
</a>
</g>
<!-- \\Treffynnon\\Navigator\\Distance\\Calculator\\CosineLaw&#45;&gt;\\Treffynnon\\Navigator\\Distance\\Calculator\\CalculatorAbstract -->
<g id="edge36" class="edge"><title>\\Treffynnon\\Navigator\\Distance\\Calculator\\CosineLaw&#45;&gt;\\Treffynnon\\Navigator\\Distance\\Calculator\\CalculatorAbstract</title>
<path fill="none" stroke="black" d="M342.459,-893.868C303.316,-897.797 241.549,-903.997 191.809,-908.989"/>
<polygon fill="none" stroke="black" points="191.312,-905.522 181.712,-910.003 192.011,-912.487 191.312,-905.522"/>
</g>
<!-- \\Treffynnon\\Navigator\\Distance\\Calculator\\Haversine -->
<g id="node18" class="node"><title>\\Treffynnon\\Navigator\\Distance\\Calculator\\Haversine</title>
<a xlink:href="Treffynnon.Navigator.Distance.Calculator.Haversine.html" xlink:title="Haversine" target="_parent">
<polygon fill="none" stroke="black" points="419,-854 343,-854 343,-818 419,-818 419,-854"/>
<text text-anchor="middle" x="381" y="-833.1" font-family="Courier,monospace" font-size="11.00">Haversine</text>
</a>
</g>
<!-- \\Treffynnon\\Navigator\\Distance\\Calculator\\Haversine&#45;&gt;\\Treffynnon\\Navigator\\Distance\\Calculator\\CalculatorAbstract -->
<g id="edge38" class="edge"><title>\\Treffynnon\\Navigator\\Distance\\Calculator\\Haversine&#45;&gt;\\Treffynnon\\Navigator\\Distance\\Calculator\\CalculatorAbstract</title>
<path fill="none" stroke="black" d="M342.339,-842.838C317.454,-847.609 284.544,-854.614 256,-863 225.313,-872.016 191.815,-884.417 164.856,-895.063"/>
<polygon fill="none" stroke="black" points="163.231,-891.942 155.237,-898.895 165.822,-898.445 163.231,-891.942"/>
</g>
<!-- \\Treffynnon\\Navigator\\Distance\\Converter\\MetreToLeague -->
<g id="node20" class="node"><title>\\Treffynnon\\Navigator\\Distance\\Converter\\MetreToLeague</title>
<a xlink:href="Treffynnon.Navigator.Distance.Converter.MetreToLeague.html" xlink:title="MetreToLeague" target="_parent">
<polygon fill="none" stroke="black" points="433,-772 329,-772 329,-736 433,-736 433,-772"/>
<text text-anchor="middle" x="381" y="-751.1" font-family="Courier,monospace" font-size="11.00">MetreToLeague</text>
</a>
</g>
<!-- \\Treffynnon\\Navigator\\Distance\\Converter\\ConverterAbstract -->
<g id="node26" class="node"><title>\\Treffynnon\\Navigator\\Distance\\Converter\\ConverterAbstract</title>
<a xlink:href="Treffynnon.Navigator.Distance.Converter.ConverterAbstract.html" xlink:title="«abstract»&lt;br/&gt;ConverterAbstract" target="_parent">
<polygon fill="none" stroke="black" points="178,-637 46,-637 46,-601 178,-601 178,-637"/>
<text text-anchor="start" x="78" y="-624.433" font-family="Courier,monospace" font-size="11.00">«abstract»</text>
<text text-anchor="start" x="54.5" y="-611.233" font-family="Courier,monospace" font-size="11.00">ConverterAbstract</text>
</a>
</g>
<!-- \\Treffynnon\\Navigator\\Distance\\Converter\\MetreToLeague&#45;&gt;\\Treffynnon\\Navigator\\Distance\\Converter\\ConverterAbstract -->
<g id="edge20" class="edge"><title>\\Treffynnon\\Navigator\\Distance\\Converter\\MetreToLeague&#45;&gt;\\Treffynnon\\Navigator\\Distance\\Converter\\ConverterAbstract</title>
<path fill="none" stroke="black" d="M328.929,-747.888C305.854,-743.897 278.824,-737.416 256,-727 210.459,-706.218 165.529,-669.157 138.277,-644.327"/>
<polygon fill="none" stroke="black" points="140.458,-641.578 130.739,-637.359 135.706,-646.718 140.458,-641.578"/>
</g>
<!-- \\Treffynnon\\Navigator\\Distance\\Converter\\MetreToParsec -->
<g id="node21" class="node"><title>\\Treffynnon\\Navigator\\Distance\\Converter\\MetreToParsec</title>
<a xlink:href="Treffynnon.Navigator.Distance.Converter.MetreToParsec.html" xlink:title="MetreToParsec" target="_parent">
<polygon fill="none" stroke="black" points="433,-718 329,-718 329,-682 433,-682 433,-718"/>
<text text-anchor="middle" x="381" y="-697.1" font-family="Courier,monospace" font-size="11.00">MetreToParsec</text>
</a>
</g>
<!-- \\Treffynnon\\Navigator\\Distance\\Converter\\MetreToParsec&#45;&gt;\\Treffynnon\\Navigator\\Distance\\Converter\\ConverterAbstract -->
<g id="edge22" class="edge"><title>\\Treffynnon\\Navigator\\Distance\\Converter\\MetreToParsec&#45;&gt;\\Treffynnon\\Navigator\\Distance\\Converter\\ConverterAbstract</title>
<path fill="none" stroke="black" d="M328.879,-690.512C306.286,-685.945 279.645,-679.947 256,-673 225.313,-663.984 191.815,-651.583 164.856,-640.937"/>
<polygon fill="none" stroke="black" points="165.822,-637.555 155.237,-637.105 163.231,-644.058 165.822,-637.555"/>
</g>
<!-- \\Treffynnon\\Navigator\\Distance\\Converter\\MetreToMile -->
<g id="node22" class="node"><title>\\Treffynnon\\Navigator\\Distance\\Converter\\MetreToMile</title>
<a xlink:href="Treffynnon.Navigator.Distance.Converter.MetreToMile.html" xlink:title="MetreToMile" target="_parent">
<polygon fill="none" stroke="black" points="426,-664 336,-664 336,-628 426,-628 426,-664"/>
<text text-anchor="middle" x="381" y="-643.1" font-family="Courier,monospace" font-size="11.00">MetreToMile</text>
</a>
</g>
<!-- \\Treffynnon\\Navigator\\Distance\\Converter\\MetreToMile&#45;&gt;\\Treffynnon\\Navigator\\Distance\\Converter\\ConverterAbstract -->
<g id="edge24" class="edge"><title>\\Treffynnon\\Navigator\\Distance\\Converter\\MetreToMile&#45;&gt;\\Treffynnon\\Navigator\\Distance\\Converter\\ConverterAbstract</title>
<path fill="none" stroke="black" d="M335.368,-641.42C295.149,-637.383 235.74,-631.42 188.3,-626.658"/>
<polygon fill="none" stroke="black" points="188.363,-623.147 178.063,-625.631 187.664,-630.112 188.363,-623.147"/>
</g>
<!-- \\Treffynnon\\Navigator\\Distance\\Converter\\MetreToKilometre -->
<g id="node23" class="node"><title>\\Treffynnon\\Navigator\\Distance\\Converter\\MetreToKilometre</title>
<a xlink:href="Treffynnon.Navigator.Distance.Converter.MetreToKilometre.html" xlink:title="MetreToKilometre" target="_parent">
<polygon fill="none" stroke="black" points="443,-610 319,-610 319,-574 443,-574 443,-610"/>
<text text-anchor="middle" x="381" y="-589.1" font-family="Courier,monospace" font-size="11.00">MetreToKilometre</text>
</a>
</g>
<!-- \\Treffynnon\\Navigator\\Distance\\Converter\\MetreToKilometre&#45;&gt;\\Treffynnon\\Navigator\\Distance\\Converter\\ConverterAbstract -->
<g id="edge26" class="edge"><title>\\Treffynnon\\Navigator\\Distance\\Converter\\MetreToKilometre&#45;&gt;\\Treffynnon\\Navigator\\Distance\\Converter\\ConverterAbstract</title>
<path fill="none" stroke="black" d="M318.271,-598.296C279.403,-602.197 229.227,-607.234 188.095,-611.362"/>
<polygon fill="none" stroke="black" points="187.717,-607.882 178.116,-612.364 188.416,-614.848 187.717,-607.882"/>
</g>
<!-- \\Treffynnon\\Navigator\\Distance\\Converter\\MetreToFurlong -->
<g id="node24" class="node"><title>\\Treffynnon\\Navigator\\Distance\\Converter\\MetreToFurlong</title>
<a xlink:href="Treffynnon.Navigator.Distance.Converter.MetreToFurlong.html" xlink:title="MetreToFurlong" target="_parent">
<polygon fill="none" stroke="black" points="436,-556 326,-556 326,-520 436,-520 436,-556"/>
<text text-anchor="middle" x="381" y="-535.1" font-family="Courier,monospace" font-size="11.00">MetreToFurlong</text>
</a>
</g>
<!-- \\Treffynnon\\Navigator\\Distance\\Converter\\MetreToFurlong&#45;&gt;\\Treffynnon\\Navigator\\Distance\\Converter\\ConverterAbstract -->
<g id="edge28" class="edge"><title>\\Treffynnon\\Navigator\\Distance\\Converter\\MetreToFurlong&#45;&gt;\\Treffynnon\\Navigator\\Distance\\Converter\\ConverterAbstract</title>
<path fill="none" stroke="black" d="M325.412,-546.904C303.448,-551.221 278.201,-557.192 256,-565 226,-575.551 221.695,-585.618 192,-597 190.613,-597.532 189.208,-598.056 187.788,-598.573"/>
<polygon fill="none" stroke="black" points="186.555,-595.296 178.251,-601.875 188.845,-601.911 186.555,-595.296"/>
</g>
<!-- \\Treffynnon\\Navigator\\Distance\\Converter\\MetreToNauticalMile -->
<g id="node25" class="node"><title>\\Treffynnon\\Navigator\\Distance\\Converter\\MetreToNauticalMile</title>
<a xlink:href="Treffynnon.Navigator.Distance.Converter.MetreToNauticalMile.html" xlink:title="MetreToNauticalMile" target="_parent">
<polygon fill="none" stroke="black" points="453,-502 309,-502 309,-466 453,-466 453,-502"/>
<text text-anchor="middle" x="381" y="-481.1" font-family="Courier,monospace" font-size="11.00">MetreToNauticalMile</text>
</a>
</g>
<!-- \\Treffynnon\\Navigator\\Distance\\Converter\\MetreToNauticalMile&#45;&gt;\\Treffynnon\\Navigator\\Distance\\Converter\\ConverterAbstract -->
<g id="edge30" class="edge"><title>\\Treffynnon\\Navigator\\Distance\\Converter\\MetreToNauticalMile&#45;&gt;\\Treffynnon\\Navigator\\Distance\\Converter\\ConverterAbstract</title>
<path fill="none" stroke="black" d="M308.454,-490.59C290.307,-494.606 271.589,-500.967 256,-511 215.936,-536.786 231.331,-570.11 192,-597 190.528,-598.006 189.012,-598.966 187.459,-599.883"/>
<polygon fill="none" stroke="black" points="185.487,-596.962 178.214,-604.667 188.704,-603.179 185.487,-596.962"/>
</g>
<!-- \\Treffynnon\\Navigator\\Exception\\InvalidCoordinateValueException -->
<g id="node30" class="node"><title>\\Treffynnon\\Navigator\\Exception\\InvalidCoordinateValueException</title>
<a xlink:href="Treffynnon.Navigator.Exception.InvalidCoordinateValueException.html" xlink:title="InvalidCoordinateValueException" target="_parent">
<polygon fill="none" stroke="black" points="494,-412 268,-412 268,-376 494,-376 494,-412"/>
<text text-anchor="middle" x="381" y="-391.1" font-family="Courier,monospace" font-size="11.00">InvalidCoordinateValueException</text>
</a>
</g>
<!-- \\Exception -->
<g id="node61" class="node"><title>\\Exception</title>
<ellipse fill="none" stroke="black" cx="112" cy="-18" rx="62.9325" ry="18.3848"/>
<text text-anchor="middle" x="112" y="-14.4" font-family="Times Roman,serif" font-size="14.00" fill="gray">\Exception</text>
</g>
<!-- \\Treffynnon\\Navigator\\Exception\\InvalidCoordinateValueException&#45;&gt;\\Exception -->
<g id="edge50" class="edge"><title>\\Treffynnon\\Navigator\\Exception\\InvalidCoordinateValueException&#45;&gt;\\Exception</title>
<path fill="none" stroke="black" d="M268.874,-375.919C264.325,-373.304 260.004,-370.346 256,-367 154.281,-281.999 123.407,-113.487 114.926,-46.4617"/>
<polygon fill="none" stroke="black" points="118.368,-45.7594 113.71,-36.2433 111.417,-46.587 118.368,-45.7594"/>
</g>
<!-- \\Treffynnon\\Navigator\\Exception\\InvalidCoordinateFormatException -->
<g id="node31" class="node"><title>\\Treffynnon\\Navigator\\Exception\\InvalidCoordinateFormatException</title>
<a xlink:href="Treffynnon.Navigator.Exception.InvalidCoordinateFormatException.html" xlink:title="InvalidCoordinateFormatException" target="_parent">
<polygon fill="none" stroke="black" points="497,-358 265,-358 265,-322 497,-322 497,-358"/>
<text text-anchor="middle" x="381" y="-337.1" font-family="Courier,monospace" font-size="11.00">InvalidCoordinateFormatException</text>
</a>
</g>
<!-- \\Treffynnon\\Navigator\\Exception\\InvalidCoordinateFormatException&#45;&gt;\\Exception -->
<g id="edge52" class="edge"><title>\\Treffynnon\\Navigator\\Exception\\InvalidCoordinateFormatException&#45;&gt;\\Exception</title>
<path fill="none" stroke="black" d="M269.719,-321.926C264.888,-319.316 260.281,-316.355 256,-313 167.319,-243.502 129.728,-105.416 117.206,-46.1211"/>
<polygon fill="none" stroke="black" points="120.571,-45.1052 115.153,-36.0008 113.711,-46.4971 120.571,-45.1052"/>
</g>
<!-- \\Treffynnon\\Navigator\\Exception\\InvalidDirectionException -->
<g id="node32" class="node"><title>\\Treffynnon\\Navigator\\Exception\\InvalidDirectionException</title>
<a xlink:href="Treffynnon.Navigator.Exception.InvalidDirectionException.html" xlink:title="InvalidDirectionException" target="_parent">
<polygon fill="none" stroke="black" points="473,-304 289,-304 289,-268 473,-268 473,-304"/>
<text text-anchor="middle" x="381" y="-283.1" font-family="Courier,monospace" font-size="11.00">InvalidDirectionException</text>
</a>
</g>
<!-- \\Treffynnon\\Navigator\\Exception\\InvalidDirectionException&#45;&gt;\\Exception -->
<g id="edge54" class="edge"><title>\\Treffynnon\\Navigator\\Exception\\InvalidDirectionException&#45;&gt;\\Exception</title>
<path fill="none" stroke="black" d="M288.263,-279.116C276.77,-275.61 265.678,-270.731 256,-264 177.893,-209.675 135.887,-98.203 119.81,-46.0573"/>
<polygon fill="none" stroke="black" points="123.07,-44.7419 116.853,-36.1627 116.363,-46.7462 123.07,-44.7419"/>
</g>
<!-- \\Treffynnon\\Navigator\\Distance -->
<g id="node33" class="node"><title>\\Treffynnon\\Navigator\\Distance</title>
<a xlink:href="Treffynnon.Navigator.Distance.html" xlink:title="Distance" target="_parent">
<polygon fill="none" stroke="black" points="416,-250 346,-250 346,-214 416,-214 416,-250"/>
<text text-anchor="middle" x="381" y="-229.1" font-family="Courier,monospace" font-size="11.00">Distance</text>
</a>
</g>
<!-- \\Treffynnon\\Navigator\\Coordinate -->
<g id="node34" class="node"><title>\\Treffynnon\\Navigator\\Coordinate</title>
<a xlink:href="Treffynnon.Navigator.Coordinate.html" xlink:title="Coordinate" target="_parent">
<polygon fill="none" stroke="black" points="423,-196 339,-196 339,-160 423,-160 423,-196"/>
<text text-anchor="middle" x="381" y="-175.1" font-family="Courier,monospace" font-size="11.00">Coordinate</text>
</a>
</g>
<!-- \\Treffynnon\\Navigator\\LatLong -->
<g id="node35" class="node"><title>\\Treffynnon\\Navigator\\LatLong</title>
<a xlink:href="Treffynnon.Navigator.LatLong.html" xlink:title="LatLong" target="_parent">
<polygon fill="none" stroke="black" points="413,-142 349,-142 349,-106 413,-106 413,-142"/>
<text text-anchor="middle" x="381" y="-121.1" font-family="Courier,monospace" font-size="11.00">LatLong</text>
</a>
</g>
<!-- \\Treffynnon\\Navigator -->
<g id="node44" class="node"><title>\\Treffynnon\\Navigator</title>
<a xlink:href="Treffynnon.Navigator.html" xlink:title="Navigator" target="_parent">
<polygon fill="none" stroke="black" points="419,-88 343,-88 343,-52 419,-52 419,-88"/>
<text text-anchor="middle" x="381" y="-67.1" font-family="Courier,monospace" font-size="11.00">Navigator</text>
</a>
</g>
</g>
</svg>
